<svg width="375" height="191" viewBox="0 0 375 191" fill="none" xmlns="http://www.w3.org/2000/svg">
<g clip-path="url(#clip0_6_263)" filter="url(#filter0_i_6_263)">
<rect width="375" height="191" fill="#44BAAB" fill-opacity="0.08"/>
<mask id="mask0_6_263" style="mask-type:alpha" maskUnits="userSpaceOnUse" x="263" y="-50" width="215" height="215">
<path fill-rule="evenodd" clip-rule="evenodd" d="M298.891 -49.8608L477.377 128.625L441.595 164.407L263.109 -14.0791L298.891 -49.8608Z" fill="white"/>
</mask>
<g mask="url(#mask0_6_263)">
<path fill-rule="evenodd" clip-rule="evenodd" d="M477.277 128.726L441.595 164.407L263.256 -13.932C263.257 -13.9604 263.254 -14.0116 263.26 -14.0633C263.266 -14.1119 263.267 -14.1732 263.296 -14.2044C263.575 -14.51 263.851 -14.8186 264.143 -15.1108C275.674 -26.644 287.205 -38.1756 298.725 -49.6948C299.757 -49.0127 475.751 126.862 477.277 128.726Z" fill="#4FD4BD" fill-opacity="0.35"/>
</g>
<mask id="mask1_6_263" style="mask-type:alpha" maskUnits="userSpaceOnUse" x="99" y="-129" width="207" height="207">
<path fill-rule="evenodd" clip-rule="evenodd" d="M269.57 -128.074L305.321 -92.3225L135.319 77.68L99.5674 41.9288L269.57 -128.074Z" fill="white"/>
</mask>
<g mask="url(#mask1_6_263)">
<path fill-rule="evenodd" clip-rule="evenodd" d="M269.57 -128.074L305.321 -92.3228L135.319 77.6799L99.7039 42.0651C99.7051 42.0287 99.7009 41.9766 99.7104 41.9258C99.7181 41.8785 99.7271 41.8202 99.7581 41.7892C155.971 -14.4435 212.186 -70.6739 268.401 -126.905L269.57 -128.074Z" fill="#4FD4BD" fill-opacity="0.35"/>
</g>
<path fill-rule="evenodd" clip-rule="evenodd" d="M232.313 275.686L196.24 239.613L337.647 98.2061L373.582 134.141C373.58 134.181 373.584 134.233 373.575 134.283C373.567 134.332 373.557 134.388 373.527 134.421C373.286 134.685 373.047 134.951 372.794 135.204C325.999 182 279.204 228.796 232.313 275.686Z" fill="#4FD4BD" fill-opacity="0.35"/>
<path fill-rule="evenodd" clip-rule="evenodd" d="M202.715 45.6345L238.071 10.2793C239.07 11.2842 240.216 12.0615 240.872 13.3227C240.987 13.5431 241.191 13.7186 241.361 13.9081C242.761 15.4638 244.221 16.9694 245.546 18.5858C246.762 20.069 247.801 21.696 248.976 23.2159C251.396 26.3494 253.392 29.7509 255.397 33.1515C257.05 35.9521 258.455 38.8733 259.795 41.8268C261.566 45.7316 262.976 49.7771 264.274 53.8583C265.635 58.1332 266.724 62.4795 267.405 66.9154C267.838 69.73 268.155 72.5624 268.52 75.3874C269.146 80.2334 269.065 85.1085 268.914 89.9657C268.786 94.0813 268.442 98.2033 267.655 102.261C267.025 105.504 266.443 108.762 265.64 111.961C264.957 114.678 263.992 117.322 263.14 119.995C261.438 125.337 259.177 130.445 256.55 135.383C254.985 138.325 253.308 141.211 251.351 143.923C250.081 145.682 248.926 147.524 247.652 149.28C246.908 150.305 245.89 151.15 245.25 152.228C244.245 153.92 242.473 154.936 241.556 156.68C241.395 156.985 241.071 157.205 240.818 157.46C239.15 159.131 237.551 160.881 235.792 162.449C234.051 164 232.39 165.65 230.469 167.001C229.518 167.672 228.678 168.498 227.761 169.219C226.408 170.283 225.09 171.408 223.651 172.343C220.731 174.241 217.782 176.102 214.764 177.839C212.309 179.252 209.789 180.58 207.203 181.735C203.209 183.519 199.156 185.191 194.939 186.396C192.005 187.235 189.063 188.062 186.086 188.722C183.014 189.403 179.906 189.944 176.794 190.414C174.833 190.711 172.837 190.804 170.853 190.92C167.896 191.093 164.931 191.362 161.976 191.301C158.819 191.236 155.66 191.065 152.505 190.743C148.549 190.34 144.631 189.749 140.749 188.925C138.461 188.44 136.193 187.84 133.945 187.19C131.446 186.468 128.948 185.717 126.508 184.818C123.792 183.818 121.124 182.678 118.467 181.527C114.415 179.771 110.554 177.647 106.85 175.243C105.112 174.115 103.408 172.936 101.703 171.758C100.248 170.753 98.785 169.753 97.3813 168.678C96.2512 167.813 95.2454 166.786 94.1128 165.924C92.2311 164.494 90.594 162.808 88.9238 161.154C88.6706 160.903 88.4201 160.65 88.2088 160.439C88.2117 160.301 88.2073 160.248 88.2156 160.198C88.2234 160.151 88.2321 160.092 88.2626 160.061C99.8307 148.472 111.401 136.885 122.973 125.3C123.113 125.16 123.279 125.047 123.506 124.86C123.825 125.147 124.137 125.396 124.413 125.681C125.946 127.254 127.729 128.521 129.429 129.896C132.815 132.636 136.614 134.645 140.514 136.468C143.143 137.697 145.919 138.591 148.755 139.266C151.13 139.831 153.503 140.405 155.938 140.658C157.203 140.79 158.469 140.961 159.739 141.003C161.535 141.065 163.335 141.037 165.132 141.023C168.767 140.995 172.33 140.385 175.857 139.581C177.79 139.14 179.718 138.621 181.585 137.958C185.849 136.445 189.899 134.49 193.632 131.895C195.547 130.563 197.384 129.149 199.207 127.693C200.534 126.633 201.713 125.45 202.926 124.29C204.584 122.705 205.933 120.858 207.36 119.071C208.82 117.242 210.11 115.313 211.278 113.307C212.836 110.633 214.231 107.868 215.276 104.946C216.494 101.535 217.451 98.0489 218.014 94.4676C218.282 92.7616 218.491 91.0415 218.619 89.3197C218.758 87.4347 218.88 85.5367 218.817 83.6498C218.688 79.7766 218.242 75.932 217.253 72.1708C216.8 70.4481 216.337 68.7255 215.792 67.0303C214.512 63.0472 212.698 59.3029 210.466 55.7708C209.468 54.1914 208.356 52.6772 207.214 51.1963C205.79 49.3469 204.282 47.5629 202.715 45.6345Z" fill="#4FD4BD" fill-opacity="0.35"/>
<path d="M138.518 175V167.598C138.518 166.816 138.329 166.243 137.951 165.879C137.58 165.514 136.994 165.332 136.193 165.332H131.672V163.389H136.35C137.854 163.389 139.003 163.757 139.797 164.492C140.598 165.228 140.998 166.296 140.998 167.695V175H138.518ZM131.662 175V171.025C131.662 170.283 131.734 169.733 131.877 169.375C132.027 169.01 132.16 168.734 132.277 168.545H134.26C134.201 168.818 134.152 169.137 134.113 169.502C134.074 169.86 134.055 170.293 134.055 170.801V175H131.662ZM146.467 163.389V172.549C147.046 172.796 147.668 172.995 148.332 173.145C149.003 173.288 149.634 173.359 150.227 173.359C151.132 173.359 151.939 173.232 152.648 172.979C153.365 172.718 153.928 172.318 154.338 171.777C154.755 171.237 154.963 170.547 154.963 169.707V163.389H157.365V169.971C157.365 170.869 157.18 171.654 156.809 172.324C156.438 172.995 155.926 173.555 155.275 174.004C154.631 174.447 153.885 174.779 153.039 175C152.193 175.215 151.291 175.322 150.334 175.322C149.325 175.322 148.277 175.202 147.189 174.961C146.102 174.714 145.064 174.355 144.074 173.887V163.389H146.467ZM148.918 171.533C149.1 171.279 149.237 170.924 149.328 170.469C149.426 170.013 149.475 169.508 149.475 168.955V163.389H151.877V168.457C151.877 169.115 151.799 169.714 151.643 170.254C151.486 170.794 151.255 171.23 150.949 171.562L148.918 171.533ZM159.641 163.389H169.309V165.332H167.316V175H164.836V165.332H159.641V163.389ZM171.633 175L171.643 163.389H176.369C177.899 163.389 179.048 163.757 179.816 164.492C180.585 165.228 180.972 166.331 180.979 167.803V175H178.508V167.617C178.508 166.829 178.335 166.253 177.99 165.889C177.652 165.518 177.118 165.332 176.389 165.332H174.113L174.104 175H171.633ZM195.627 175V167.598C195.627 166.816 195.438 166.243 195.061 165.879C194.689 165.514 194.104 165.332 193.303 165.332H188.781V163.389H193.459C194.963 163.389 196.112 163.757 196.906 164.492C197.707 165.228 198.107 166.296 198.107 167.695V175H195.627ZM188.771 175V171.025C188.771 170.283 188.843 169.733 188.986 169.375C189.136 169.01 189.27 168.734 189.387 168.545H191.369C191.311 168.818 191.262 169.137 191.223 169.502C191.184 169.86 191.164 170.293 191.164 170.801V175H188.771ZM203.576 163.389V172.549C204.156 172.796 204.777 172.995 205.441 173.145C206.112 173.288 206.743 173.359 207.336 173.359C208.241 173.359 209.048 173.232 209.758 172.979C210.474 172.718 211.037 172.318 211.447 171.777C211.864 171.237 212.072 170.547 212.072 169.707V163.389H214.475V169.971C214.475 170.869 214.289 171.654 213.918 172.324C213.547 172.995 213.036 173.555 212.385 174.004C211.74 174.447 210.995 174.779 210.148 175C209.302 175.215 208.4 175.322 207.443 175.322C206.434 175.322 205.386 175.202 204.299 174.961C203.212 174.714 202.173 174.355 201.184 173.887V163.389H203.576ZM206.027 171.533C206.21 171.279 206.346 170.924 206.438 170.469C206.535 170.013 206.584 169.508 206.584 168.955V163.389H208.986V168.457C208.986 169.115 208.908 169.714 208.752 170.254C208.596 170.794 208.365 171.23 208.059 171.562L206.027 171.533ZM218.645 169.941V165.332H216.682V163.389H221.125V169.941H218.645ZM223.42 175.107C223.322 175.107 223.218 175.104 223.107 175.098C223.003 175.091 222.902 175.078 222.805 175.059V172.812C222.935 172.832 223.065 172.848 223.195 172.861C223.326 172.868 223.446 172.871 223.557 172.871C224.123 172.858 224.615 172.751 225.031 172.549C225.454 172.347 225.803 172.067 226.076 171.709C226.356 171.344 226.564 170.928 226.701 170.459V165.332H224.123V163.389H229.143V169.316C229.143 169.941 229.204 170.55 229.328 171.143L230.119 175H227.824L227.141 171.914H227.072C226.981 172.493 226.766 173.027 226.428 173.516C226.089 173.997 225.66 174.385 225.139 174.678C224.624 174.964 224.051 175.107 223.42 175.107ZM236.838 175.225C236.232 175.225 235.568 175.166 234.846 175.049C234.123 174.932 233.433 174.759 232.775 174.531L233.244 172.705C233.869 172.887 234.491 173.024 235.109 173.115C235.728 173.2 236.255 173.242 236.691 173.242C237.694 173.229 238.456 172.988 238.977 172.52C239.504 172.051 239.768 171.37 239.768 170.479V165.332H235.754C235.585 165.697 235.451 166.104 235.354 166.553C235.256 167.002 235.207 167.458 235.207 167.92V168.643C235.357 168.688 235.536 168.721 235.744 168.74C235.959 168.76 236.203 168.77 236.477 168.77V170.596C235.962 170.641 235.487 170.651 235.051 170.625C234.615 170.592 234.211 170.521 233.84 170.41C233.475 170.299 233.133 170.15 232.814 169.961L232.785 168.691C232.785 168.047 232.857 167.425 233 166.826C233.15 166.227 233.358 165.729 233.625 165.332H232.316V163.389H242.238V170.078C242.238 171.276 242.001 172.256 241.525 173.018C241.05 173.773 240.406 174.333 239.592 174.697C238.778 175.055 237.86 175.231 236.838 175.225Z" fill="#082543"/>
<path d="M349.243 35.0003C349.392 35.0008 349.54 34.9678 349.675 34.9038C349.81 34.8398 349.929 34.7463 350.023 34.6303L354.853 28.6303C355 28.4513 355.081 28.2269 355.081 27.9953C355.081 27.7637 355 27.5392 354.853 27.3603L349.853 21.3603C349.683 21.1561 349.439 21.0276 349.175 21.0033C348.911 20.9789 348.647 21.0605 348.443 21.2303C348.239 21.4 348.11 21.6439 348.086 21.9084C348.062 22.1728 348.143 22.4361 348.313 22.6403L352.783 28.0003L348.463 33.3603C348.341 33.5071 348.263 33.6858 348.239 33.8753C348.215 34.0649 348.246 34.2573 348.328 34.4299C348.41 34.6024 348.54 34.7478 348.702 34.8489C348.864 34.95 349.052 35.0025 349.243 35.0003Z" fill="black"/>
</g>
<defs>
<filter id="filter0_i_6_263" x="0" y="-61" width="375" height="252" filterUnits="userSpaceOnUse" color-interpolation-filters="sRGB">
<feFlood flood-opacity="0" result="BackgroundImageFix"/>
<feBlend mode="normal" in="SourceGraphic" in2="BackgroundImageFix" result="shape"/>
<feColorMatrix in="SourceAlpha" type="matrix" values="0 0 0 0 0 0 0 0 0 0 0 0 0 0 0 0 0 0 127 0" result="hardAlpha"/>
<feOffset dy="-78"/>
<feGaussianBlur stdDeviation="30.5"/>
<feComposite in2="hardAlpha" operator="arithmetic" k2="-1" k3="1"/>
<feColorMatrix type="matrix" values="0 0 0 0 1 0 0 0 0 1 0 0 0 0 1 0 0 0 1 0"/>
<feBlend mode="normal" in2="shape" result="effect1_innerShadow_6_263"/>
</filter>
<clipPath id="clip0_6_263">
<rect width="375" height="191" fill="white"/>
</clipPath>
</defs>
</svg>
